# xmcd
#
# Track frame offsets: 
#        150
#        11223
#        26708
#        40322
#        57063
#        75054
#        95525
#        110958
#        127020
#        138706
#        154865
#
# Disc length: 2313 seconds
#
# Revision: 1
# Processed by: cddbd v1.5.2PL0 Copyright (c) Steve Scherf et al.
# Submitted via: ExactAudioCopy v0.99pb5
#
DISCID=9209070b
DTITLE=Los Hermanos - Disculpame
DYEAR=2008
DGENRE=Latin
TTITLE0=Adelita
TTITLE1=Que Sera
TTITLE2=Disculpame
TTITLE3=Maria Isabel
TTITLE4=Besame Mucho
TTITLE5=Guantanamera
TTITLE6=Perfidia
TTITLE7=Solamente Una Vez
TTITLE8=Antonio Vargas
TTITLE9=Historia De Un Amor
TTITLE10=Ave Maria No Moro
EXTD=
EXTT0=
EXTT1=
EXTT2=
EXTT3=
EXTT4=
EXTT5=
EXTT6=
EXTT7=
EXTT8=
EXTT9=
EXTT10=
PLAYORDER=
